<svg width="221" height="271" viewBox="0 0 221 271" fill="none" xmlns="http://www.w3.org/2000/svg">
<path d="M24.8748 243.528C26.7948 244.136 28.2988 245.16 29.3868 246.6C30.4748 248.008 31.0188 249.752 31.0188 251.832C31.0188 254.776 29.8668 257.048 27.5628 258.648C25.2908 260.216 21.9628 261 17.5788 261H0.202759V227.4H16.6188C20.7148 227.4 23.8508 228.184 26.0268 229.752C28.2348 231.32 29.3388 233.448 29.3388 236.136C29.3388 237.768 28.9388 239.224 28.1388 240.504C27.3708 241.784 26.2828 242.792 24.8748 243.528ZM7.93076 233.256V241.176H15.6588C17.5788 241.176 19.0348 240.84 20.0268 240.168C21.0188 239.496 21.5148 238.504 21.5148 237.192C21.5148 235.88 21.0188 234.904 20.0268 234.264C19.0348 233.592 17.5788 233.256 15.6588 233.256H7.93076ZM17.0028 255.144C19.0508 255.144 20.5868 254.808 21.6108 254.136C22.6668 253.464 23.1948 252.424 23.1948 251.016C23.1948 248.232 21.1308 246.84 17.0028 246.84H7.93076V255.144H17.0028Z" fill="white"/>
<path d="M48.6659 261.384C45.9459 261.384 43.4979 260.824 41.3219 259.704C39.1779 258.552 37.4979 256.968 36.2819 254.952C35.0659 252.936 34.4579 250.648 34.4579 248.088C34.4579 245.528 35.0659 243.24 36.2819 241.224C37.4979 239.208 39.1779 237.64 41.3219 236.52C43.4979 235.368 45.9459 234.792 48.6659 234.792C51.3859 234.792 53.8179 235.368 55.9619 236.52C58.1059 237.64 59.7859 239.208 61.0019 241.224C62.2179 243.24 62.8259 245.528 62.8259 248.088C62.8259 250.648 62.2179 252.936 61.0019 254.952C59.7859 256.968 58.1059 258.552 55.9619 259.704C53.8179 260.824 51.3859 261.384 48.6659 261.384ZM48.6659 255.24C50.5859 255.24 52.1539 254.6 53.3699 253.32C54.6179 252.008 55.2419 250.264 55.2419 248.088C55.2419 245.912 54.6179 244.184 53.3699 242.904C52.1539 241.592 50.5859 240.936 48.6659 240.936C46.7459 240.936 45.1619 241.592 43.9139 242.904C42.6659 244.184 42.0419 245.912 42.0419 248.088C42.0419 250.264 42.6659 252.008 43.9139 253.32C45.1619 254.6 46.7459 255.24 48.6659 255.24Z" fill="white"/>
<path d="M70.7579 225C72.1019 225 73.2059 225.432 74.0699 226.296C74.9339 227.128 75.3659 228.232 75.3659 229.608C75.3659 230.248 75.2859 230.888 75.1259 231.528C74.9659 232.168 74.6299 233.128 74.1179 234.408L71.3339 241.32H66.5819L68.6459 233.736C67.8459 233.384 67.2219 232.856 66.7739 232.152C66.3259 231.448 66.1019 230.6 66.1019 229.608C66.1019 228.232 66.5339 227.128 67.3979 226.296C68.2939 225.432 69.4139 225 70.7579 225Z" fill="white"/>
<path d="M105.909 235.176V256.68C105.909 261.416 104.677 264.936 102.213 267.24C99.7485 269.544 96.1485 270.696 91.4125 270.696C88.9165 270.696 86.5485 270.392 84.3085 269.784C82.0685 269.176 80.2125 268.296 78.7405 267.144L81.7165 261.768C82.8045 262.664 84.1805 263.368 85.8445 263.88C87.5085 264.424 89.1725 264.696 90.8365 264.696C93.4285 264.696 95.3325 264.104 96.5485 262.92C97.7965 261.768 98.4205 260.008 98.4205 257.64V256.536C96.4685 258.68 93.7485 259.752 90.2605 259.752C87.8925 259.752 85.7165 259.24 83.7325 258.216C81.7805 257.16 80.2285 255.688 79.0765 253.8C77.9245 251.912 77.3485 249.736 77.3485 247.272C77.3485 244.808 77.9245 242.632 79.0765 240.744C80.2285 238.856 81.7805 237.4 83.7325 236.376C85.7165 235.32 87.8925 234.792 90.2605 234.792C94.0045 234.792 96.8525 236.024 98.8045 238.488V235.176H105.909ZM91.7485 253.608C93.7325 253.608 95.3485 253.032 96.5965 251.88C97.8765 250.696 98.5165 249.16 98.5165 247.272C98.5165 245.384 97.8765 243.864 96.5965 242.712C95.3485 241.528 93.7325 240.936 91.7485 240.936C89.7645 240.936 88.1325 241.528 86.8525 242.712C85.5725 243.864 84.9325 245.384 84.9325 247.272C84.9325 249.16 85.5725 250.696 86.8525 251.88C88.1325 253.032 89.7645 253.608 91.7485 253.608Z" fill="white"/>
<path d="M112.878 235.176H120.366V261H112.878V235.176ZM116.622 231.576C115.246 231.576 114.126 231.176 113.262 230.376C112.398 229.576 111.966 228.584 111.966 227.4C111.966 226.216 112.398 225.224 113.262 224.424C114.126 223.624 115.246 223.224 116.622 223.224C117.998 223.224 119.118 223.608 119.982 224.376C120.846 225.144 121.278 226.104 121.278 227.256C121.278 228.504 120.846 229.544 119.982 230.376C119.118 231.176 117.998 231.576 116.622 231.576Z" fill="white"/>
<path d="M143.011 234.792C146.211 234.792 148.787 235.752 150.739 237.672C152.723 239.592 153.715 242.44 153.715 246.216V261H146.227V247.368C146.227 245.32 145.779 243.8 144.883 242.808C143.987 241.784 142.691 241.272 140.995 241.272C139.107 241.272 137.603 241.864 136.483 243.048C135.363 244.2 134.803 245.928 134.803 248.232V261H127.315V235.176H134.467V238.2C135.459 237.112 136.691 236.28 138.163 235.704C139.635 235.096 141.251 234.792 143.011 234.792Z" fill="white"/>
<path d="M160.503 225.384H167.991V261H160.503V225.384Z" fill="white"/>
<path d="M185.356 234.792C189.356 234.792 192.428 235.752 194.572 237.672C196.716 239.56 197.788 242.424 197.788 246.264V261H190.78V257.784C189.372 260.184 186.748 261.384 182.908 261.384C180.924 261.384 179.196 261.048 177.724 260.376C176.284 259.704 175.18 258.776 174.412 257.592C173.644 256.408 173.26 255.064 173.26 253.56C173.26 251.16 174.156 249.272 175.948 247.896C177.772 246.52 180.572 245.832 184.348 245.832H190.3C190.3 244.2 189.804 242.952 188.812 242.088C187.82 241.192 186.332 240.744 184.348 240.744C182.972 240.744 181.612 240.968 180.268 241.416C178.956 241.832 177.836 242.408 176.908 243.144L174.22 237.912C175.628 236.92 177.308 236.152 179.26 235.608C181.244 235.064 183.276 234.792 185.356 234.792ZM184.78 256.344C186.06 256.344 187.196 256.056 188.188 255.48C189.18 254.872 189.884 253.992 190.3 252.84V250.2H185.164C182.092 250.2 180.556 251.208 180.556 253.224C180.556 254.184 180.924 254.952 181.66 255.528C182.428 256.072 183.468 256.344 184.78 256.344Z" fill="white"/>
<path d="M211.717 238.584C212.613 237.336 213.813 236.392 215.317 235.752C216.853 235.112 218.613 234.792 220.597 234.792V241.704C219.765 241.64 219.205 241.608 218.917 241.608C216.773 241.608 215.093 242.216 213.877 243.432C212.661 244.616 212.053 246.408 212.053 248.808V261H204.565V235.176H211.717V238.584Z" fill="white"/>
<path d="M30.0304 82.3242C28.5444 82.3332 27.122 82.9277 26.0715 83.9783C25.0206 85.0288 24.4264 86.4515 24.4174 87.9372V98.3316C24.3065 99.7397 23.6687 101.054 22.6316 102.013C21.5943 102.972 20.234 103.504 18.8217 103.504C17.4091 103.504 16.0488 102.972 15.0118 102.013C13.9744 101.054 13.3369 99.7397 13.226 98.3316V99.0246C13.226 97.5361 12.6346 96.1083 11.582 95.0557C10.5294 94.003 9.10151 93.4116 7.61302 93.4116C6.12419 93.4116 4.69668 94.003 3.64407 95.0557C2.59146 96.1083 2.00002 97.5361 2.00002 99.0246V191.224C2.00002 192.712 2.59146 194.14 3.64407 195.192C4.69668 196.245 6.12419 196.837 7.61302 196.837C9.10151 196.837 10.5294 196.245 11.582 195.192C12.6346 194.14 13.226 192.712 13.226 191.224V161.98C13.1651 161.209 13.2648 160.433 13.5185 159.701C13.7721 158.969 14.1744 158.298 14.6996 157.73C15.2252 157.161 15.8628 156.708 16.572 156.397C17.2816 156.087 18.0473 155.927 18.8217 155.927C19.5958 155.927 20.3618 156.087 21.0711 156.397C21.7803 156.708 22.4179 157.161 22.9435 157.73C23.4691 158.298 23.8714 158.969 24.125 159.701C24.3786 160.433 24.4781 161.209 24.4174 161.98V179.997C24.4174 181.486 25.0085 182.914 26.0615 183.966C27.1141 185.019 28.5416 185.61 30.0304 185.61C31.5189 185.61 32.9468 185.019 33.9994 183.966C35.052 182.914 35.6434 181.486 35.6434 179.997V87.8679C35.6251 86.3912 35.026 84.9813 33.9751 83.9436C32.9246 82.9059 31.5071 82.3242 30.0304 82.3242ZM18.8391 148.537C18.1007 148.542 17.3686 148.4 16.6857 148.119C16.0024 147.839 15.3818 147.425 14.8597 146.903C14.3375 146.381 13.9242 145.761 13.6439 145.077C13.3636 144.394 13.2215 143.662 13.226 142.924V117.631C13.1651 116.859 13.2648 116.083 13.5185 115.351C13.7721 114.62 14.1744 113.949 14.6996 113.38C15.2252 112.811 15.8628 112.358 16.572 112.047C17.2816 111.737 18.0473 111.577 18.8217 111.577C19.5958 111.577 20.3618 111.737 21.0711 112.047C21.7803 112.358 22.4179 112.811 22.9435 113.38C23.4691 113.949 23.8714 114.62 24.125 115.351C24.3786 116.083 24.4781 116.859 24.4174 117.631V142.924C24.4219 143.659 24.2812 144.388 24.0027 145.069C23.7244 145.75 23.3142 146.369 22.7959 146.891C22.2772 147.413 21.6608 147.827 20.982 148.109C20.3029 148.392 19.5746 148.537 18.8391 148.537Z" fill="white"/>
<path d="M74.8652 35.8959C74.1327 35.8959 73.4076 36.0404 72.7305 36.3207C72.0539 36.601 71.4389 37.0119 70.9209 37.5299C70.4029 38.0479 69.9919 38.6629 69.7116 39.3396C69.4313 40.0163 69.2868 40.7418 69.2868 41.4743V115.032C69.2868 116.521 68.6957 117.949 67.6431 119.001C66.5902 120.054 65.1627 120.645 63.6738 120.645C62.1853 120.645 60.7575 120.054 59.7049 119.001C58.6523 117.949 58.0612 116.521 58.0612 115.032V58.6601C58.1218 57.8882 58.022 57.1121 57.7684 56.3806C57.5148 55.6489 57.1129 54.9777 56.5872 54.4091C56.0616 53.8406 55.4241 53.387 54.7148 53.0766C54.0056 52.7665 53.2395 52.6064 52.4655 52.6064C51.6911 52.6064 50.9254 52.7665 50.2158 53.0766C49.5065 53.387 48.869 53.8406 48.3434 54.4091C47.8178 54.9777 47.4155 55.6489 47.1619 56.3806C46.9083 57.1121 46.8088 57.8882 46.8698 58.6601V150.859C46.8088 151.631 46.9083 152.407 47.1619 153.138C47.4155 153.87 47.8178 154.541 48.3434 155.109C48.869 155.678 49.5065 156.132 50.2158 156.442C50.9254 156.752 51.6911 156.912 52.4655 156.912C53.2395 156.912 54.0056 156.752 54.7148 156.442C55.4241 156.132 56.0616 155.678 56.5872 155.109C57.1129 154.541 57.5148 153.87 57.7684 153.138C58.022 152.407 58.1218 151.631 58.0612 150.859V134.054C58.0612 132.566 58.6523 131.138 59.7049 130.085C60.7575 129.033 62.1853 128.441 63.6738 128.441C65.1627 128.441 66.5902 129.033 67.6431 130.085C68.6957 131.138 69.2868 132.566 69.2868 134.054V133.535C69.3977 134.943 70.0356 136.257 71.0726 137.216C72.11 138.175 73.4703 138.707 74.8825 138.707C76.2951 138.707 77.6558 138.175 78.6928 137.216C79.7298 136.257 80.3674 134.943 80.4782 133.535V41.301C80.4332 39.8458 79.8209 38.4661 78.7721 37.4561C77.7233 36.4461 76.3211 35.8862 74.8652 35.8959Z" fill="white"/>
<path d="M119.7 0C118.211 0 116.784 0.591441 115.731 1.64405C114.678 2.69667 114.087 4.12417 114.087 5.61301V21.1354C114.087 22.6239 113.496 24.0517 112.443 25.1044C111.39 26.157 109.962 26.7484 108.474 26.7484C106.985 26.7484 105.558 26.157 104.505 25.1044C103.452 24.0517 102.861 22.6239 102.861 21.1354V18.225C102.75 16.8169 102.112 15.5023 101.075 14.5436C100.038 13.5849 98.6775 13.0527 97.2653 13.0527C95.853 13.0527 94.4924 13.5849 93.4554 14.5436C92.418 15.5023 91.7805 16.8169 91.6696 18.225V110.424C91.609 111.196 91.7084 111.972 91.962 112.703C92.2157 113.435 92.6179 114.106 93.1435 114.675C93.6688 115.243 94.3063 115.697 95.0159 116.007C95.7252 116.317 96.4909 116.478 97.2653 116.478C98.0397 116.478 98.8054 116.317 99.5147 116.007C100.224 115.697 100.862 115.243 101.387 114.675C101.913 114.106 102.315 113.435 102.569 112.703C102.822 111.972 102.922 111.196 102.861 110.424V40.2959C102.861 38.807 103.452 37.3795 104.505 36.3269C105.558 35.2743 106.985 34.6829 108.474 34.6829C109.962 34.6829 111.39 35.2743 112.443 36.3269C113.496 37.3795 114.087 38.807 114.087 40.2959V97.8119C114.087 99.3004 114.678 100.728 115.731 101.781C116.784 102.833 118.211 103.425 119.7 103.425C121.189 103.425 122.616 102.833 123.669 101.781C124.722 100.728 125.313 99.3004 125.313 97.8119V5.61301C125.304 4.12729 124.71 2.70465 123.659 1.65411C122.608 0.603232 121.186 0.00900854 119.7 0Z" fill="white"/>
<path d="M209.37 92.6843C207.887 92.6937 206.468 93.2889 205.423 94.3405C204.378 95.3921 203.791 96.8148 203.792 98.2973V106.301C203.792 107.79 203.2 109.217 202.148 110.27C201.095 111.323 199.667 111.914 198.179 111.914C196.69 111.914 195.262 111.323 194.209 110.27C193.157 109.217 192.566 107.79 192.566 106.301V83.7451C192.566 82.2566 191.974 80.8288 190.921 79.7761C189.869 78.7235 188.441 78.1321 186.953 78.1321C185.464 78.1321 184.036 78.7235 182.984 79.7761C181.931 80.8288 181.34 82.2566 181.34 83.7451V131.941C181.229 133.349 180.591 134.663 179.554 135.622C178.516 136.581 177.156 137.113 175.743 137.113C174.331 137.113 172.971 136.581 171.934 135.622C170.897 134.663 170.259 133.349 170.148 131.941V58.2093C170.148 56.7209 169.557 55.293 168.504 54.2404C167.451 53.1878 166.024 52.5963 164.535 52.5963C163.046 52.5963 161.618 53.1878 160.566 54.2404C159.513 55.293 158.922 56.7209 158.922 58.2093V109.662C158.983 110.434 158.883 111.21 158.629 111.941C158.376 112.673 157.974 113.344 157.448 113.913C156.923 114.481 156.285 114.935 155.576 115.245C154.867 115.556 154.1 115.716 153.326 115.716C152.552 115.716 151.786 115.556 151.077 115.245C150.367 114.935 149.73 114.481 149.204 113.913C148.679 113.344 148.277 112.673 148.023 111.941C147.77 111.21 147.67 110.434 147.731 109.662V36.3117C147.731 34.8232 147.139 33.3953 146.087 32.3427C145.034 31.2901 143.606 30.6987 142.118 30.6987C140.629 30.6987 139.201 31.2901 138.149 32.3427C137.096 33.3953 136.505 34.8232 136.505 36.3117V128.511C136.505 129.999 137.096 131.427 138.149 132.48C139.201 133.532 140.629 134.124 142.118 134.124C143.606 134.124 145.034 133.532 146.087 132.48C147.139 131.427 147.731 129.999 147.731 128.511V128.822C147.842 127.414 148.479 126.1 149.516 125.141C150.554 124.183 151.914 123.65 153.326 123.65C154.739 123.65 156.099 124.183 157.136 125.141C158.173 126.1 158.811 127.414 158.922 128.822V150.408C158.922 151.897 159.513 153.325 160.566 154.377C161.618 155.43 163.046 156.021 164.535 156.021C166.024 156.021 167.451 155.43 168.504 154.377C169.557 153.325 170.148 151.897 170.148 150.408V151.101C170.087 150.329 170.187 149.553 170.44 148.822C170.694 148.09 171.096 147.419 171.622 146.851C172.147 146.282 172.785 145.828 173.494 145.518C174.203 145.208 174.969 145.047 175.743 145.047C176.518 145.047 177.284 145.208 177.993 145.518C178.702 145.828 179.34 146.282 179.866 146.851C180.391 147.419 180.793 148.09 181.047 148.822C181.301 149.553 181.4 150.329 181.34 151.101V175.944C181.34 177.433 181.931 178.86 182.984 179.913C184.036 180.966 185.464 181.557 186.953 181.557C188.441 181.557 189.869 180.966 190.921 179.913C191.974 178.86 192.566 177.433 192.566 175.944V125.496C192.566 124.007 193.157 122.58 194.209 121.527C195.262 120.475 196.69 119.883 198.179 119.883C199.667 119.883 201.095 120.475 202.148 121.527C203.2 122.58 203.792 124.007 203.792 125.496V190.496C203.731 191.268 203.83 192.044 204.084 192.776C204.338 193.507 204.74 194.178 205.265 194.747C205.791 195.315 206.428 195.769 207.138 196.079C207.847 196.39 208.613 196.55 209.387 196.55C210.161 196.55 210.927 196.39 211.637 196.079C212.346 195.769 212.983 195.315 213.509 194.747C214.035 194.178 214.437 193.507 214.69 192.776C214.944 192.044 215.044 191.268 214.983 190.496V98.2627C214.974 96.7801 214.378 95.3613 213.327 94.3159C212.275 93.2709 210.853 92.6843 209.37 92.6843Z" fill="white"/>
</svg>
